<svg width="82.353027" height="14.836975" viewBox="0 0 82.353 14.837" fill="none" xmlns="http://www.w3.org/2000/svg" xmlns:xlink="http://www.w3.org/1999/xlink">
	<desc>
			Created with Pixso.
	</desc>
	<defs/>
	<path id="Shape" d="M40.19 3.63L40.19 5.11L40.23 5.11C40.77 4.32 41.67 3.38 43.65 3.38C45.2 3.38 46.38 4.16 46.89 5.34L46.94 5.34C47.37 4.74 47.87 4.29 48.42 3.97C49.08 3.59 49.82 3.38 50.74 3.38C52.83 3.38 54.68 4.72 54.68 8.13L54.68 14.58L51.5 14.58L51.5 8.58C51.5 6.85 50.87 5.86 49.56 5.86C48.61 5.86 47.91 6.46 47.65 7.19C47.56 7.45 47.51 7.79 47.51 8.08L47.51 14.59L44.33 14.59L44.33 8.34C44.33 6.87 43.72 5.85 42.44 5.85C41.41 5.85 40.76 6.61 40.5 7.26C40.39 7.54 40.35 7.85 40.35 8.15L40.35 14.58L37.16 14.58L37.16 3.63L40.19 3.63ZM71.14 3.63L71.14 5.69L71.22 5.69C71.81 4.11 73.2 3.38 74.42 3.38C74.72 3.38 74.89 3.4 75.14 3.45L75.14 6.32C74.85 6.28 74.58 6.24 74.2 6.24C72.81 6.24 71.85 6.99 71.61 8.16C71.55 8.41 71.54 8.67 71.54 8.97L71.54 14.59L68.27 14.59L68.27 3.63L71.14 3.63ZM79.58 0L79.58 3.44L82.35 3.44L82.35 6.24L79.58 6.24L79.58 10.35C79.58 11.69 79.95 12.33 81.03 12.33C81.53 12.33 81.91 12.27 82.23 12.2L82.27 14.51C81.84 14.66 80.92 14.83 79.98 14.83C78.87 14.83 77.95 14.47 77.39 13.91C76.75 13.28 76.46 12.24 76.46 10.75L76.46 0L79.58 0ZM34.94 14.58L31.76 14.58L31.76 0L34.94 0L34.94 14.58ZM26.48 10.67C26.48 10.87 26.46 11.08 26.4 11.26C26.15 12.02 25.31 12.66 24.26 12.66C23.38 12.66 22.68 12.2 22.68 11.21C22.68 9.71 24.46 9.29 26.48 9.3L26.48 10.67L26.48 10.67ZM29.64 8.05C29.64 5.56 28.51 3.38 24.67 3.38C22.7 3.38 21.13 3.9 20.28 4.36L20.9 6.35C21.68 5.89 22.93 5.51 24.11 5.51C26.06 5.51 26.37 6.54 26.37 7.2L26.37 7.36C22.12 7.35 19.44 8.73 19.44 11.52C19.44 13.23 20.81 14.83 23.18 14.83C24.65 14.83 25.87 14.29 26.6 13.42L26.67 13.42C26.67 13.42 27.16 15.31 29.83 14.59C29.69 13.8 29.64 12.96 29.64 11.95L29.64 8.05L29.64 8.05ZM3.5 0C3.83 1.54 4.76 6.02 4.76 6.02C5.15 7.86 5.51 9.8 5.78 11.32L5.83 11.32C6.09 9.7 6.51 8.16 6.96 6.26L8.52 0L12 0L13.46 6.42C13.85 8.21 14.16 9.59 14.4 11.25L14.44 11.25C14.71 9.57 15.05 8.14 15.43 6.3L16.84 0L20.17 0L16.05 14.58C13.41 15.12 12.41 14.13 12.05 12.56C11.69 10.99 10.98 8.01 10.98 8.01C10.62 6.37 10.34 5.22 10.14 3.54L10.09 3.54C9.81 5.21 9.51 6.37 9.07 8.01L7.34 14.59C4.66 15.09 3.73 14.34 3.21 12.33C2.77 10.61 0 0 0 0L3.5 0L3.5 0ZM62.98 10.67C62.98 10.87 62.96 11.08 62.9 11.26C62.65 12.02 61.81 12.66 60.76 12.66C59.88 12.66 59.18 12.2 59.18 11.21C59.18 9.71 60.96 9.29 62.98 9.3L62.98 10.67L62.98 10.67ZM66.15 8.05C66.15 5.56 65.01 3.38 61.17 3.38C59.2 3.38 57.63 3.9 56.78 4.36L57.41 6.35C58.18 5.89 59.43 5.51 60.61 5.51C62.55 5.51 62.87 6.54 62.87 7.2L62.87 7.36C58.63 7.35 55.95 8.73 55.95 11.52C55.95 13.23 57.31 14.83 59.69 14.83C61.15 14.83 62.37 14.29 63.1 13.42L63.17 13.42C63.17 13.42 63.66 15.31 66.33 14.59C66.19 13.8 66.15 12.96 66.15 11.95L66.15 8.05Z" fill="#041E42" fill-opacity="1.000000" fill-rule="nonzero"/>
</svg>
