<svg width="24.000000" height="24.000000" viewBox="0 0 24 24" fill="none" xmlns="http://www.w3.org/2000/svg" xmlns:xlink="http://www.w3.org/1999/xlink">
	<desc>
			Created with Pixso.
	</desc>
	<defs>
		<clipPath id="clip1_1850">
			<rect rx="0.000000" width="23.000000" height="23.000000" transform="translate(0.500000 0.500000)" fill="white" fill-opacity="0"/>
		</clipPath>
	</defs>
	<g clip-path="url(#clip1_1850)">
		<path d="M10 18C14.41 18 18 14.41 18 10C18 5.58 14.41 2 10 2C5.58 2 2 5.58 2 10C2 14.41 5.58 18 10 18ZM13.7 8.7C14.09 8.31 14.09 7.68 13.7 7.29C13.31 6.9 12.68 6.9 12.29 7.29L9 10.58L7.7 9.29C7.31 8.9 6.68 8.9 6.29 9.29C5.9 9.68 5.9 10.31 6.29 10.7L8.29 12.7C8.68 13.09 9.31 13.09 9.7 12.7L13.7 8.7Z" fill="#101010" fill-opacity="1.000000" fill-rule="evenodd"/>
	</g>
</svg>
