<svg width="16.000000" height="20.000000" viewBox="0 0 16 20" fill="none" xmlns="http://www.w3.org/2000/svg" xmlns:xlink="http://www.w3.org/1999/xlink">
	<desc>
			Created with Pixso.
	</desc>
	<defs/>
	<path id="Icon" d="M11 3L13 3C14.1 3 15 3.89 15 5L15 17C15 18.1 14.1 19 13 19L3 19C1.89 19 1 18.1 1 17L1 5C1 3.89 1.89 3 3 3L5 3M5 12L7 14L11 10M9 1C10.1 1 11 1.89 11 3C11 4.1 10.1 5 9 5L7 5C5.89 5 5 4.1 5 3C5 1.89 5.89 1 7 1L9 1Z" stroke="#101010" stroke-opacity="1.000000" stroke-width="2.000000" stroke-linecap="round"/>
</svg>
